HIERARCHY
ROOT hip
{
  OFFSET -101.206 71.7764 257.594
  CHANNELS 6 Xposition Yposition Zposition Zrotation Xrotation Yrotation
  JOINT abdomen
  {
    OFFSET 0 20.6881 -0.73152
    CHANNELS 3 Zrotation Xrotation Yrotation
    JOINT chest
    {
      OFFSET 0 11.7043 -0.48768
      CHANNELS 3 Zrotation Xrotation Yrotation
      JOINT neck
      {
        OFFSET 0 22.1894 -2.19456
        CHANNELS 3 Zrotation Xrotation Yrotation
        JOINT head
        {
          OFFSET -0.24384 7.07133 1.2192
          CHANNELS 3 Zrotation Xrotation Yrotation
          JOINT leftEye
          {
            OFFSET 4.14528 8.04674 8.04672
            CHANNELS 3 Zrotation Xrotation Yrotation
            End Site
            {
              OFFSET 1 0 0
            }
          }
          JOINT rightEye
          {
            OFFSET -3.6576 8.04674 8.04672
            CHANNELS 3 Zrotation Xrotation Yrotation
            End Site
            {
              OFFSET 1 0 0
            }
          }
        }
      }
      JOINT rCollar
      {
        OFFSET -2.68224 19.2634 -4.8768
        CHANNELS 3 Zrotation Xrotation Yrotation
        JOINT rShldr
        {
          OFFSET -8.77824 -1.95073 1.46304
          CHANNELS 3 Zrotation Xrotation Yrotation
          JOINT rForeArm
          {
            OFFSET -28.1742 -1.7115 0.48768
            CHANNELS 3 Zrotation Xrotation Yrotation
            JOINT rHand
            {
              OFFSET -22.5879 0.773209 7.07136
              CHANNELS 3 Zrotation Xrotation Yrotation
              JOINT rThumb1
              {
                OFFSET -1.2192 -0.487915 3.41376
                CHANNELS 3 Zrotation Xrotation Yrotation
                JOINT rThumb2
                {
                  OFFSET -3.37035 -0.52449 3.41376
                  CHANNELS 3 Zrotation Xrotation Yrotation
                  End Site
                  {
                    OFFSET -1.78271 -1.18214 1.43049
                  }
                }
              }
              JOINT rIndex1
              {
                OFFSET -7.75947 0.938293 5.60832
                CHANNELS 3 Zrotation Xrotation Yrotation
                JOINT rIndex2
                {
                  OFFSET -2.54057 -0.884171 1.56538
                  CHANNELS 3 Zrotation Xrotation Yrotation
                  End Site
                  {
                    OFFSET -1.62519 -0.234802 1.16502
                  }
                }
              }
              JOINT rMid1
              {
                OFFSET -8.24714 1.18213 3.41376
                CHANNELS 3 Zrotation Xrotation Yrotation
                JOINT rMid2
                {
                  OFFSET -3.10165 -0.590103 1.0647
                  CHANNELS 3 Zrotation Xrotation Yrotation
                  End Site
                  {
                    OFFSET -2.48547 -0.328903 0.83742
                  }
                }
              }
              JOINT rRing1
              {
                OFFSET -8.82822 0.546677 1.51678
                CHANNELS 3 Zrotation Xrotation Yrotation
                JOINT rRing2
                {
                  OFFSET -2.60934 -0.819778 -0.0198488
                  CHANNELS 3 Zrotation Xrotation Yrotation
                  End Site
                  {
                    OFFSET -2.33842 -0.294052 0.168128
                  }
                }
              }
              JOINT rPinky1
              {
                OFFSET -8.27202 -0.0477905 -0.4584
                CHANNELS 3 Zrotation Xrotation Yrotation
                JOINT rPinky2
                {
                  OFFSET -1.82734 -0.647385 -0.700984
                  CHANNELS 3 Zrotation Xrotation Yrotation
                  End Site
                  {
                    OFFSET -1.69225 -0.51767 -0.607171
                  }
                }
              }
            }
          }
        }
      }
      JOINT lCollar
      {
        OFFSET 2.68224 19.2634 -4.8768
        CHANNELS 3 Zrotation Xrotation Yrotation
        JOINT lShldr
        {
          OFFSET 8.77824 -1.95073 1.46304
          CHANNELS 3 Zrotation Xrotation Yrotation
          JOINT lForeArm
          {
            OFFSET 28.1742 -1.7115 0.48768
            CHANNELS 3 Zrotation Xrotation Yrotation
            JOINT lHand
            {
              OFFSET 22.5879 0.773209 7.07136
              CHANNELS 3 Zrotation Xrotation Yrotation
              JOINT lThumb1
              {
                OFFSET 1.2192 -0.487915 3.41376
                CHANNELS 3 Zrotation Xrotation Yrotation
                JOINT lThumb2
                {
                  OFFSET 3.37035 -0.52449 3.41376
                  CHANNELS 3 Zrotation Xrotation Yrotation
                  End Site
                  {
                    OFFSET 1.78271 -1.18214 1.43049
                  }
                }
              }
              JOINT lIndex1
              {
                OFFSET 7.75947 0.938293 5.60832
                CHANNELS 3 Zrotation Xrotation Yrotation
                JOINT lIndex2
                {
                  OFFSET 2.54057 -0.884171 1.56538
                  CHANNELS 3 Zrotation Xrotation Yrotation
                  End Site
                  {
                    OFFSET 1.62519 -0.234802 1.16502
                  }
                }
              }
              JOINT lMid1
              {
                OFFSET 8.24714 1.18213 3.41376
                CHANNELS 3 Zrotation Xrotation Yrotation
                JOINT lMid2
                {
                  OFFSET 3.10165 -0.590103 1.0647
                  CHANNELS 3 Zrotation Xrotation Yrotation
                  End Site
                  {
                    OFFSET 2.48547 -0.328903 0.83742
                  }
                }
              }
              JOINT lRing1
              {
                OFFSET 8.82822 0.546677 1.51678
                CHANNELS 3 Zrotation Xrotation Yrotation
                JOINT lRing2
                {
                  OFFSET 2.60934 -0.819778 -0.0198488
                  CHANNELS 3 Zrotation Xrotation Yrotation
                  End Site
                  {
                    OFFSET 2.33842 -0.294052 0.168128
                  }
                }
              }
              JOINT lPinky1
              {
                OFFSET 8.27202 -0.0477905 -0.4584
                CHANNELS 3 Zrotation Xrotation Yrotation
                JOINT lPinky2
                {
                  OFFSET 1.82734 -0.647385 -0.700984
                  CHANNELS 3 Zrotation Xrotation Yrotation
                  End Site
                  {
                    OFFSET 1.69225 -0.51767 -0.607171
                  }
                }
              }
            }
          }
        }
      }
    }
  }
  JOINT rButtock
  {
    OFFSET -8.77824 4.35084 1.2192
    CHANNELS 3 Zrotation Xrotation Yrotation
    JOINT rThigh
    {
      OFFSET 0 -1.70687 -2.19456
      CHANNELS 3 Zrotation Xrotation Yrotation
      JOINT rShin
      {
        OFFSET 0 -36.8199 0.73152
        CHANNELS 3 Zrotation Xrotation Yrotation
        JOINT rFoot
        {
          OFFSET 0.73152 -45.1104 -5.12064
          CHANNELS 3 Zrotation Xrotation Yrotation
          End Site
          {
            OFFSET -1.1221 -3.69964 12.103
          }
        }
      }
    }
  }
  JOINT lButtock
  {
    OFFSET 8.77824 4.35084 1.2192
    CHANNELS 3 Zrotation Xrotation Yrotation
    JOINT lThigh
    {
      OFFSET 0 -1.70687 -2.19456
      CHANNELS 3 Zrotation Xrotation Yrotation
      JOINT lShin
      {
        OFFSET 0 -36.8199 0.73152
        CHANNELS 3 Zrotation Xrotation Yrotation
        JOINT lFoot
        {
          OFFSET -0.73152 -45.1104 -5.12064
          CHANNELS 3 Zrotation Xrotation Yrotation
          End Site
          {
            OFFSET 1.1221 -3.69964 12.103
          }
        }
      }
    }
  }
}
MOTION
Frames:	4
Frame Time:	0.00833333
159.282 60.5917 -154.416 2.06593 0.00941631 -0.039484 -2.71676 0.0011584 -0.0732853 -0.748359 0.0144111 -0.129492 -1.23398e-014 -7.95139e-016 6.4605e-016 -3.69802e-014 3.18055e-015 1.93504e-015 -0 0 0 -0 0 0 -6.11483e-015 -1.18028e-016 5.96354e-016 -1.26858e-013 -1.93194e-015 6.95746e-015 -2.22241e-012 5.80054e-013 1.33583e-013 -2.53039e-011 -1.06939e-012 1.26268e-012 -5.97058e-011 -1.07223e-012 3.05969e-012 -1.03117e-010 -1.85744e-012 5.28449e-012 -5.9703e-011 -1.07065e-012 3.04697e-012 7.73091 5.47488 0.417314 -5.97057e-011 -1.07274e-012 3.06287e-012 2.90554 0.965183 0.102902 -5.97019e-011 -1.07205e-012 3.0581e-012 10.2786 0.731801 0.0259123 -5.97068e-011 -1.07065e-012 3.06605e-012 2.22167 -0.733487 -0.20892 -6.21022e-015 -1.1764e-016 1.98785e-016 -1.29653e-013 -2.03133e-015 5.76476e-015 -2.20502e-012 -7.37491e-013 1.62208e-013 -2.52971e-011 2.40206e-013 1.26586e-012 -5.96512e-011 -1.08685e-012 3.06924e-012 -1.03003e-010 -1.87653e-012 5.2988e-012 -5.96593e-011 -1.08258e-012 3.07878e-012 -7.73091 5.47488 -0.417314 -5.96519e-011 -1.08616e-012 3.06924e-012 -2.90554 0.965183 -0.102902 -5.96636e-011 -1.08606e-012 3.06446e-012 -10.2786 0.731801 -0.0259123 -5.96489e-011 -1.08616e-012 3.05651e-012 -2.22167 -0.733487 0.20892 -2.03217e-016 0 -3.88251e-019 -1.56734 -1.93222 0.00884936 -0.00885092 -2.07862 -0.0728582 -0.495733 3.9993 0.137924 2.03217e-016 0 3.88251e-019 -2.5604 -8.62918 0.27581 -0.00720008 10.0513 -0.186823 0.547759 -1.43352 -0.0321265 
157.084 57.7186 -157.642 2.42709 3.75619 -12.0376 -1.76074 14.8044 -1.88039 -1.47248 -0.839827 -0.684325 0.722604 2.9519 0.927099 -0.745667 -16.7563 1.25401 -0 0 0 -0 0 0 -1.91285e-013 4.33962e-014 8.94888e-014 18.326 13.1371 5.28574 -24.7142 -22.538 14.5035 0.00766474 1.94268 0.27246 6.23811e-011 -2.40837e-010 -2.93277e-010 1.03938e-010 -4.10181e-010 -5.06e-010 6.23839e-011 -2.40834e-010 -2.93294e-010 7.73091 5.47488 0.417314 6.23809e-011 -2.40837e-010 -2.93271e-010 2.90554 0.965183 0.102902 6.23862e-011 -2.40836e-010 -2.93275e-010 10.2786 0.731801 0.0259123 6.23795e-011 -2.40835e-010 -2.93266e-010 2.22167 -0.733487 -0.20892 -1.91399e-013 4.33758e-014 8.91468e-014 -0.721026 -5.66966 -19.6597 15.9733 -13.3101 -14.7692 -0.326419 -12.7333 1.63409 -8.01611e-011 8.91698e-011 1.33355e-010 -1.43259e-010 1.59893e-010 2.27227e-010 -8.01668e-011 8.91741e-011 1.33363e-010 -7.73091 5.47488 -0.417314 -8.01613e-011 8.91707e-011 1.33356e-010 -2.90554 0.965183 -0.102902 -8.0171e-011 8.91704e-011 1.33351e-010 -10.2786 0.731801 -0.0259123 -8.01582e-011 8.91699e-011 1.33344e-010 -2.22167 -0.733487 0.20892 -2.03217e-016 0 -3.88251e-019 -0.5385 -20.4595 -0.050237 0.0801359 19.8978 0.222256 -0.982268 -3.0659 -3.37762 2.03217e-016 0 3.88251e-019 -3.15062 -25.7659 3.46393 -0.00331678 28.7359 -0.454143 1.13169 -6.94643 2.71091 
156.914 58.2869 -156.951 4.46782 7.15834 -24.8777 0.412544 30.3917 -4.24609 -2.25906 -1.74166 -1.27128 1.38162 6.0664 1.91654 -0.577478 -34.4343 3.00051 -0 0 0 -0 0 0 -4.03937e-013 1.02642e-013 1.95592e-013 34.8079 26.6428 11.8518 -35.5394 -41.0056 37.7519 -0.00438057 4.00129 0.562243 2.17694e-010 -5.59112e-010 -6.56381e-010 3.67644e-010 -9.52958e-010 -1.13265e-009 2.17697e-010 -5.59108e-010 -6.56403e-010 7.73091 5.47488 0.417314 2.17694e-010 -5.59111e-010 -6.56373e-010 2.90554 0.965183 0.102902 2.17701e-010 -5.5911e-010 -6.56376e-010 10.2786 0.731801 0.0259123 2.17692e-010 -5.5911e-010 -6.56367e-010 2.22167 -0.733487 -0.20892 -4.04071e-013 1.02599e-013 1.95309e-013 -5.40446 -9.3799 -40.8926 25.1481 -24.3479 -32.7735 0.199808 -26.1587 3.65354 -1.04984e-010 2.0242e-010 3.0023e-010 -1.9228e-010 3.6257e-010 5.11691e-010 -1.04987e-010 2.02424e-010 3.00236e-010 -7.73091 5.47488 -0.417314 -1.04984e-010 2.02421e-010 3.00232e-010 -2.90554 0.965183 -0.102902 -1.04991e-010 2.0242e-010 3.00228e-010 -10.2786 0.731801 -0.0259123 -1.0498e-010 2.02419e-010 3.00221e-010 -2.22167 -0.733487 0.20892 -2.03217e-016 0 -3.88251e-019 0.496636 -40.028 -0.140733 -0.147773 43.1242 0.694369 -2.44906 -10.4662 -7.20041 2.03217e-016 0 3.88251e-019 -0.945507 -43.6337 8.49477 0.29157 48.4835 -0.942117 2.33448 -12.7335 5.70585 
157.035 58.3581 -156.783 7.56188 9.28913 -36.5092 3.89116 44.1935 -7.41222 -2.97038 -2.54723 -1.79555 1.87841 8.84636 2.81107 1.00307 -50.1441 5.62636 -0 0 0 -0 0 0 -5.61626e-013 1.30425e-013 2.67274e-013 46.1814 37.8849 19.7151 -31.1093 -45.7859 67.5367 -0.0326775 5.82752 0.821154 3.06555e-010 -7.20367e-010 -8.85949e-010 5.18049e-010 -1.22683e-009 -1.52857e-009 3.06558e-010 -7.20362e-010 -8.85975e-010 7.73091 5.47488 0.417314 3.06554e-010 -7.20365e-010 -8.8594e-010 2.90554 0.965183 0.102902 3.06562e-010 -7.20364e-010 -8.85941e-010 10.2786 0.731801 0.0259123 3.06552e-010 -7.20364e-010 -8.85931e-010 2.22167 -0.733487 -0.20892 -5.61777e-013 1.30363e-013 2.67043e-013 -11.6595 -9.27115 -59.9483 27.4187 -28.7793 -51.2095 1.69501 -38.058 6.07719 -1.21181e-010 2.69683e-010 3.93926e-010 -2.23771e-010 4.83433e-010 6.71084e-010 -1.21182e-010 2.69687e-010 3.9393e-010 -7.73091 5.47488 -0.417314 -1.2118e-010 2.69684e-010 3.93928e-010 -2.90554 0.965183 -0.102902 -1.21186e-010 2.69683e-010 3.93924e-010 -10.2786 0.731801 -0.0259123 -1.21177e-010 2.69682e-010 3.93918e-010 -2.22167 -0.733487 0.20892 -2.03217e-016 0 -3.88251e-019 1.32291 -57.5138 -0.295837 -1.09343 63.8404 1.75261 -4.63082 -16.9213 -10.8694 2.03217e-016 0 3.88251e-019 6.18377 -59.0033 17.306 1.28017 66.094 -2.04046 3.94614 -17.8081 8.54973 
